{"title":"GloryHole 12 03 29 Blak Rose XXX 720 WMV-=Royal Hunter=-","uid":7150488,"size":595364668,"categoryP":"porn","categoryS":"movie_clips","magnet":"?xt=urn:btih:9d9e1ba41b79849825122588167a3af883f5c003&amp;dn=GloryHole+12+03+29+Blak+Rose+XXX+720+WMV-%3DRoyal+Hunter%3D-&amp;tr=udp%3A%2F%2Ftracker.openbittorrent.com%3A80&amp;tr=udp%3A%2F%2Fopen.demonii.com%3A1337&amp;tr=udp%3A%2F%2Ftracker.coppersurfer.tk%3A6969&amp;tr=udp%3A%2F%2Fexodus.desync.com%3A6969","seeders":0,"leechers":1,"uploader":"arsenal_rocks","files":2,"time":1333298709,"description":" &lt;a href=&quot;http://picturestack.com/265/909/KOavlcsnap201zT3.png&quot; rel=&quot;nofollow&quot; target=&quot;_NEW&quot;&gt;http://picturestack.com/265/909/KOavlcsnap201zT3.png&lt;/a&gt;\n &lt;a href=&quot;\nhttp://picturestack.com/267/765/l9Zinfo6OZ.png&quot; rel=&quot;nofollow&quot; target=&quot;_NEW&quot;&gt;\nhttp://picturestack.com/267/765/l9Zinfo6OZ.png&lt;/a&gt;\n\nComplete name                    :GloryHole 12 03 29 Blak Rose XXX 720 WMV-=Royal Hunter=-\nFormat                           : Windows Media\nFile size                        : 535 MiB\nDuration                         : 16mn 15s\nOverall bit rate                 : 4 604 Kbps\nMaximum Overall bit rate         : 4 556 Kbps\nEncoded date                     : UTC 1970-01-01 00:00:00.000\nWM/EncodingSettings              : Lavf52.54.0\n\nVideo\nID                               : 1\nFormat                           : MPEG-4 Visual\nCodec ID                         : MP43\nCodec ID/Info                    : Microsoft MPEG-4 v3 (pre-standard)\nCodec ID/Hint                    : Microsoft\nDescription of the codec         : msmpeg4\nDuration                         : 16mn 15s\nBit rate                         : 4 357 Kbps\nWidth                            : 1 280 pixels\nHeight                           : 720 pixels\nDisplay aspect ratio             : 16:9\nFrame rate                       : 29.970 fps\nBit depth                        : 8 bits\nCompression mode                 : Lossy\nBits/(Pixel*Frame)               : 0.158\nStream size                      : 507 MiB (95%)\n\nAudio\nID                               : 2\nFormat                           : WMA\nFormat version                   : Version 2\nCodec ID                         : 161\nCodec ID/Info                    : Windows Media Audio\nDescription of the codec         : Windows Media Audio V8\nDuration                         : 16mn 15s\nBit rate                         : 56.0 Kbps\nChannel(s)                       : 2 channels\nSampling rate                    : 22.05 KHz\nBit depth                        : 16 bits\nStream size                      : 6.51 MiB (1%)\n\n &lt;a href=&quot;\nhttp://picturestack.com/265/909/ekxscreensMHd.png&quot; rel=&quot;nofollow&quot; target=&quot;_NEW&quot;&gt;\nhttp://picturestack.com/265/909/ekxscreensMHd.png&lt;/a&gt;\n\n\n &lt;a href=&quot;\nhttp://picturestack.com/265/909/KOavlcsnap201zT3.png&quot; rel=&quot;nofollow&quot; target=&quot;_NEW&quot;&gt;\nhttp://picturestack.com/265/909/KOavlcsnap201zT3.png&lt;/a&gt;\n &lt;a href=&quot;\nhttp://picturestack.com/265/909/TJhvlcsnap201Up5.png&quot; rel=&quot;nofollow&quot; target=&quot;_NEW&quot;&gt;\nhttp://picturestack.com/265/909/TJhvlcsnap201Up5.png&lt;/a&gt;\n &lt;a href=&quot;\nhttp://picturestack.com/265/909/kqQvlcsnap201qTr.png&quot; rel=&quot;nofollow&quot; target=&quot;_NEW&quot;&gt;\nhttp://picturestack.com/265/909/kqQvlcsnap201qTr.png&lt;/a&gt;\n &lt;a href=&quot;\nhttp://picturestack.com/265/909/mslvlcsnap201nGo.png&quot; rel=&quot;nofollow&quot; target=&quot;_NEW&quot;&gt;\nhttp://picturestack.com/265/909/mslvlcsnap201nGo.png&lt;/a&gt;\n &lt;a href=&quot;\nhttp://picturestack.com/265/909/3jDvlcsnap201qBI.png&quot; rel=&quot;nofollow&quot; target=&quot;_NEW&quot;&gt;\nhttp://picturestack.com/265/909/3jDvlcsnap201qBI.png&lt;/a&gt;\n &lt;a href=&quot;\nhttp://picturestack.com/265/909/N7ovlcsnap20143H.png&quot; rel=&quot;nofollow&quot; target=&quot;_NEW&quot;&gt;\nhttp://picturestack.com/265/909/N7ovlcsnap20143H.png&lt;/a&gt;\n &lt;a href=&quot;\nhttp://picturestack.com/265/909/asWvlcsnap201Vwb.png&quot; rel=&quot;nofollow&quot; target=&quot;_NEW&quot;&gt;\nhttp://picturestack.com/265/909/asWvlcsnap201Vwb.png&lt;/a&gt;\n &lt;a href=&quot;\nhttp://picturestack.com/265/909/Assvlcsnap201RID.png&quot; rel=&quot;nofollow&quot; target=&quot;_NEW&quot;&gt;\nhttp://picturestack.com/265/909/Assvlcsnap201RID.png&lt;/a&gt;\n &lt;a href=&quot;\nhttp://picturestack.com/265/909/iR0vlcsnap201Mi3.png&quot; rel=&quot;nofollow&quot; target=&quot;_NEW&quot;&gt;\nhttp://picturestack.com/265/909/iR0vlcsnap201Mi3.png&lt;/a&gt;\n\n","torrent":{"xt":"urn:btih:9d9e1ba41b79849825122588167a3af883f5c003","amp;dn":"GloryHole+12+03+29+Blak+Rose+XXX+720+WMV-%3DRoyal+Hunter%3D-","amp;tr":["udp%3A%2F%2Ftracker.openbittorrent.com%3A80","udp%3A%2F%2Fopen.demonii.com%3A1337","udp%3A%2F%2Ftracker.coppersurfer.tk%3A6969","udp%3A%2F%2Fexodus.desync.com%3A6969"],"infoHash":"9d9e1ba41b79849825122588167a3af883f5c003","infoHashBuffer":{"type":"Buffer","data":[157,158,27,164,27,121,132,152,37,18,37,136,22,122,58,248,131,245,192,3]},"announce":[],"urlList":[]}}